<?xml version="1.0" encoding="UTF-8" standalone="no" ?>
<!DOCTYPE svg PUBLIC "-//W3C//DTD SVG 1.1//EN" "http://www.w3.org/Graphics/SVG/1.1/DTD/svg11.dtd">
<svg xmlns="http://www.w3.org/2000/svg" xmlns:xlink="http://www.w3.org/1999/xlink" version="1.1" width="400" height="400" viewBox="0 0 400 400" xml:space="preserve">
<desc>Created with Fabric.js 3.6.2</desc>
<defs>
</defs>
<g transform="matrix(3.13 0 0 3.13 200.05 199.95)" id="Layer_1"  >
<path style="stroke: none; stroke-width: 1; stroke-dasharray: none; stroke-linecap: butt; stroke-dashoffset: 0; stroke-linejoin: miter; stroke-miterlimit: 4; fill: rgb(79,190,159); fill-rule: nonzero; opacity: 1;"  transform=" translate(-32.02, -31.99)" d="M 54 13.34 a 6.79 6.79 0 0 0 -5 -2 c -6.08 -0.2 -10.39 3 -12.79 9.62 a 1 1 0 0 0 1.18 1.28 a 7.66 7.66 0 0 1 2 -0.29 a 3.33 3.33 0 0 1 2.66 0.94 a 3 3 0 0 1 0.18 2.66 A 37.29 37.29 0 0 1 38.79 32 c -2.17 3.4 -3.36 4.92 -3.7 4.92 c -1.14 0 -5.26 -18.27 -5.38 -18.67 c -1.18 -4.18 -1.77 -6.29 -5.61 -6.29 c -2.93 0 -9.47 5.35 -14.83 10 l -0.82 0.71 a 1.28 1.28 0 0 0 -0.18 1.76 l 1 1.23 a 1.34 1.34 0 0 0 1.84 0.27 h 0 c 1.74 -1.23 3.38 -2.4 4.61 -2.46 s 2.52 2 3.91 7 c 2.65 9.71 7.34 22.17 11.47 22.17 c 4.32 0 8.8 -4.54 15.46 -13.2 c 6 -7.85 9.25 -14.07 9.46 -18.59 C 56.13 17.44 55.47 14.91 54 13.34 Z" stroke-linecap="round" />
</g>
<g transform="matrix(3.13 0 0 3.13 168.95 182.67)" id="Layer_1"  >
<path style="stroke: none; stroke-width: 1; stroke-dasharray: none; stroke-linecap: butt; stroke-dashoffset: 0; stroke-linejoin: miter; stroke-miterlimit: 4; fill: rgb(9,129,108); fill-rule: nonzero; opacity: 1;"  transform=" translate(-22.07, -26.45)" d="M 36.11 35.89 c -0.53 0.68 -0.87 1 -1 1 c -1.14 0 -5.26 -18.27 -5.38 -18.67 c -1.18 -4.18 -1.77 -6.29 -5.61 -6.29 c -2.93 0 -9.47 5.35 -14.83 10 l -0.82 0.71 a 1.28 1.28 0 0 0 -0.18 1.76 l 1 1.23 a 1.34 1.34 0 0 0 1.84 0.27 c 1.74 -1.23 3.38 -2.4 4.61 -2.46 s 2.52 2 3.91 7 c 0.46 1.72 1 3.51 1.58 5.32 a 7.56 7.56 0 0 0 12.72 2.81 A 25.84 25.84 0 0 0 36.11 35.89 Z" stroke-linecap="round" />
</g>
</svg>